<svg width="327" height="328" xmlns="http://www.w3.org/2000/svg" xmlns:xlink="http://www.w3.org/1999/xlink" xml:space="preserve" overflow="hidden"><g transform="translate(3444 456)"><path d="M-3440.5-292C-3440.5-380.642-3368.87-452.5-3280.5-452.5-3192.13-452.5-3120.5-380.642-3120.5-292-3120.5-203.358-3192.13-131.5-3280.5-131.5-3368.87-131.5-3440.5-203.358-3440.5-292Z" stroke="#F2F2F2" stroke-width="6.875" stroke-miterlimit="8" fill="#F2F2F2" fill-rule="evenodd" fill-opacity="0.25098"/><g><g><g><path d="M-3280.92-180.355C-3296.35-180.355-3310.84-183.278-3324.38-189.122-3337.92-194.967-3349.76-202.96-3359.9-213.102-3370.04-223.244-3378.03-235.088-3383.88-248.632-3389.72-262.177-3392.64-276.676-3392.64-292.129-3392.64-307.581-3389.72-322.082-3383.88-335.634-3378.03-349.184-3370.04-360.986-3359.91-371.038-3349.77-381.092-3337.93-389.05-3324.38-394.913-3310.84-400.778-3296.33-403.71-3280.88-403.71-3265.42-403.71-3250.92-400.78-3237.36-394.919-3223.8-389.057-3212-381.103-3201.95-371.057-3191.9-361.01-3183.95-349.196-3178.08-335.615-3172.22-322.033-3169.29-307.52-3169.29-292.074-3169.29-276.63-3172.22-262.14-3178.09-248.605-3183.95-235.067-3191.91-223.247-3201.96-213.144-3212.01-203.042-3223.83-195.051-3237.4-189.172-3250.98-183.294-3265.48-180.355-3280.92-180.355ZM-3283.92-236.175-3266.7-236.175-3266.7-347.825-3306.75-347.825-3306.75-330.602-3283.92-330.602-3283.92-236.175Z" fill="#F2F2F2"/></g></g></g></g></svg>