<svg width="327" height="328" xmlns="http://www.w3.org/2000/svg" xmlns:xlink="http://www.w3.org/1999/xlink" xml:space="preserve" overflow="hidden"><g transform="translate(-5841 -377)"><path d="M5844.5 541C5844.5 452.358 5916.13 380.5 6004.5 380.5 6092.87 380.5 6164.5 452.358 6164.5 541 6164.5 629.642 6092.87 701.5 6004.5 701.5 5916.13 701.5 5844.5 629.642 5844.5 541Z" stroke="#F2F2F2" stroke-width="6.875" stroke-miterlimit="8" fill="#F2F2F2" fill-rule="evenodd" fill-opacity="0.25098"/><g><g><g><path d="M6004.08 652.645C5988.65 652.645 5974.16 649.722 5960.62 643.878 5947.08 638.033 5935.24 630.04 5925.1 619.898 5914.96 609.756 5906.97 597.912 5901.12 584.368 5895.28 570.823 5892.36 556.324 5892.36 540.871 5892.36 525.419 5895.28 510.918 5901.12 497.366 5906.97 483.816 5914.96 472.014 5925.09 461.962 5935.23 451.908 5947.07 443.95 5960.62 438.087 5974.16 432.222 5988.67 429.29 6004.12 429.29 6019.58 429.29 6034.08 432.22 6047.64 438.081 6061.2 443.942 6073 451.896 6083.05 461.943 6093.1 471.99 6101.05 483.804 6106.92 497.385 6112.78 510.966 6115.71 525.48 6115.71 540.926 6115.71 556.37 6112.78 570.86 6106.91 584.395 6101.05 597.932 6093.09 609.753 6083.04 619.856 6072.99 629.958 6061.17 637.949 6047.6 643.828 6034.02 649.706 6019.52 652.645 6004.08 652.645ZM6001.08 596.825 6018.3 596.825 6018.3 485.175 5978.25 485.175 5978.25 502.398 6001.08 502.398 6001.08 596.825Z" fill="#F2F2F2"/></g></g></g><text fill="#404040" font-family="Segoe UI,Segoe UI_MSFontService,sans-serif" font-weight="400" font-size="64" transform="matrix(1 0 0 1 6027.16 594)">yr</text></g></svg>