<svg width="328" height="327" xmlns="http://www.w3.org/2000/svg" xmlns:xlink="http://www.w3.org/1999/xlink" xml:space="preserve" overflow="hidden"><g transform="translate(3443 102)"><g><g><g><path d="M-3279.92 172.644C-3295.35 172.644-3309.84 169.722-3323.38 163.877-3336.92 158.033-3348.76 150.039-3358.9 139.897-3369.04 129.755-3377.03 117.912-3382.88 104.367-3388.72 90.8228-3391.64 76.3237-3391.64 60.8706-3391.64 45.4192-3388.72 30.9176-3382.88 17.3656-3377.03 3.81551-3369.04-7.98584-3358.91-18.0379-3348.77-28.0919-3336.93-36.0504-3323.38-41.9134-3309.84-47.7784-3295.33-50.7107-3279.88-50.7107-3264.42-50.7107-3249.92-47.78-3236.36-41.9189-3222.8-36.0578-3211-28.1037-3200.95-18.0572-3190.9-8.0106-3182.95 3.80341-3177.08 17.3848-3171.22 30.9662-3168.29 45.4796-3168.29 60.9256-3168.29 76.3696-3171.22 90.8593-3177.09 104.395-3182.95 117.932-3190.91 129.753-3200.96 139.856-3211.01 149.958-3222.83 157.948-3236.4 163.828-3249.98 169.705-3264.48 172.644-3279.92 172.644ZM-3312.35 116.825-3247.65 116.825-3247.65 99.6016-3295.12 99.6016-3295.12 69.0931-3264.88 69.0931C-3260.12 69.0931-3256.07 67.3999-3252.7 64.0138-3249.33 60.6258-3247.65 56.5567-3247.65 51.8066L-3247.65 22.3981C-3247.65 17.648-3249.33 13.5898-3252.7 10.2238-3256.07 6.85783-3260.12 5.17484-3264.88 5.17484L-3312.35 5.17484-3312.35 22.3981-3264.88 22.3981-3264.88 51.8066-3295.12 51.8066C-3299.88 51.8066-3303.93 53.4998-3307.3 56.8858-3310.67 60.2738-3312.35 64.343-3312.35 69.0931L-3312.35 116.825Z" fill="#F2F2F2"/></g></g></g><path d="M-3439.5 61.4998C-3439.5-26.8657-3367.64-98.5002-3279-98.5002-3190.36-98.5002-3118.5-26.8657-3118.5 61.4998-3118.5 149.865-3190.36 221.5-3279 221.5-3367.64 221.5-3439.5 149.865-3439.5 61.4998Z" stroke="#F2F2F2" stroke-width="6.875" stroke-miterlimit="8" fill="#F2F2F2" fill-rule="evenodd" fill-opacity="0.25098"/></g></svg>