<svg width="327" height="328" xmlns="http://www.w3.org/2000/svg" xmlns:xlink="http://www.w3.org/1999/xlink" xml:space="preserve" overflow="hidden"><g transform="translate(-5849 -1092)"><g><g><g><path d="M6012.08 1367.64C5996.65 1367.64 5982.16 1364.72 5968.62 1358.88 5955.08 1353.03 5943.24 1345.04 5933.1 1334.9 5922.96 1324.76 5914.97 1312.91 5909.12 1299.37 5903.28 1285.82 5900.36 1271.32 5900.36 1255.87 5900.36 1240.42 5903.28 1225.92 5909.12 1212.37 5914.97 1198.82 5922.96 1187.01 5933.09 1176.96 5943.23 1166.91 5955.07 1158.95 5968.62 1153.09 5982.16 1147.22 5996.67 1144.29 6012.12 1144.29 6027.58 1144.29 6042.08 1147.22 6055.64 1153.08 6069.2 1158.94 6081 1166.9 6091.05 1176.94 6101.1 1186.99 6109.05 1198.8 6114.92 1212.39 6120.78 1225.97 6123.71 1240.48 6123.71 1255.93 6123.71 1271.37 6120.78 1285.86 6114.91 1299.4 6109.05 1312.93 6101.09 1324.75 6091.04 1334.86 6080.99 1344.96 6069.17 1352.95 6055.6 1358.83 6042.02 1364.71 6027.52 1367.64 6012.08 1367.64ZM5979.65 1311.83 6044.35 1311.83 6044.35 1294.6 5996.88 1294.6 5996.88 1264.09 6027.12 1264.09C6031.88 1264.09 6035.93 1262.4 6039.3 1259.01 6042.67 1255.63 6044.35 1251.56 6044.35 1246.81L6044.35 1217.4C6044.35 1212.65 6042.67 1208.59 6039.3 1205.22 6035.93 1201.86 6031.88 1200.18 6027.12 1200.18L5979.65 1200.18 5979.65 1217.4 6027.12 1217.4 6027.12 1246.81 5996.88 1246.81C5992.12 1246.81 5988.07 1248.5 5984.7 1251.89 5981.33 1255.27 5979.65 1259.34 5979.65 1264.09L5979.65 1311.83Z" fill="#F2F2F2"/></g></g></g><path d="M5852.5 1256C5852.5 1167.36 5924.13 1095.5 6012.5 1095.5 6100.87 1095.5 6172.5 1167.36 6172.5 1256 6172.5 1344.64 6100.87 1416.5 6012.5 1416.5 5924.13 1416.5 5852.5 1344.64 5852.5 1256Z" stroke="#F2F2F2" stroke-width="6.875" stroke-miterlimit="8" fill="#F2F2F2" fill-rule="evenodd" fill-opacity="0.25098"/><text fill="#404040" font-family="Segoe UI,Segoe UI_MSFontService,sans-serif" font-weight="400" font-size="64" transform="matrix(1 0 0 1 6052.26 1306)">yr</text></g></svg>