<svg width="327" height="327" xmlns="http://www.w3.org/2000/svg" xmlns:xlink="http://www.w3.org/1999/xlink" xml:space="preserve" overflow="hidden"><g transform="translate(3444 -251)"><g><g><g><path d="M-3280.92 525.644C-3296.35 525.644-3310.84 522.722-3324.38 516.877-3337.92 511.033-3349.76 503.039-3359.9 492.897-3370.04 482.755-3378.03 470.912-3383.88 457.367-3389.72 443.823-3392.64 429.324-3392.64 413.871-3392.64 398.419-3389.72 383.918-3383.88 370.366-3378.03 356.816-3370.04 345.014-3359.91 334.962-3349.77 324.908-3337.93 316.95-3324.38 311.087-3310.84 305.222-3296.33 302.289-3280.88 302.289-3265.42 302.289-3250.92 305.22-3237.36 311.081-3223.8 316.942-3212 324.896-3201.95 334.943-3191.9 344.989-3183.95 356.803-3178.08 370.385-3172.22 383.966-3169.29 398.48-3169.29 413.926-3169.29 429.37-3172.22 443.859-3178.09 457.395-3183.95 470.932-3191.91 482.753-3201.96 492.856-3212.01 502.958-3223.83 510.948-3237.4 516.828-3250.98 522.706-3265.48 525.644-3280.92 525.644ZM-3313.35 469.825-3265.88 469.825C-3261.12 469.825-3257.07 468.142-3253.7 464.776-3250.33 461.41-3248.65 457.352-3248.65 452.602L-3248.65 429.4C-3248.65 424.45-3249.97 420.554-3252.61 417.712-3255.24 414.871-3258.42 413.45-3262.13 413.45-3258.42 413.45-3255.24 412.212-3252.61 409.737-3249.97 407.262-3248.65 403.458-3248.65 398.325L-3248.65 375.398C-3248.65 370.648-3250.33 366.59-3253.7 363.224-3257.07 359.858-3261.12 358.175-3265.88 358.175L-3313.35 358.175-3313.35 375.398-3265.88 375.398-3265.88 405.2-3290.52 405.2-3290.52 421.7-3265.88 421.7-3265.88 452.602-3313.35 452.602-3313.35 469.825Z" fill="#F2F2F2"/></g></g></g><path d="M-3440.5 414.5C-3440.5 326.134-3368.87 254.5-3280.5 254.5-3192.13 254.5-3120.5 326.134-3120.5 414.5-3120.5 502.865-3192.13 574.5-3280.5 574.5-3368.87 574.5-3440.5 502.865-3440.5 414.5Z" stroke="#F2F2F2" stroke-width="6.875" stroke-miterlimit="8" fill="#F2F2F2" fill-rule="evenodd" fill-opacity="0.25098"/></g></svg>