<svg width="328" height="328" xmlns="http://www.w3.org/2000/svg" xmlns:xlink="http://www.w3.org/1999/xlink" xml:space="preserve" overflow="hidden"><g transform="translate(-5842 -1796)"><g><g><g><path d="M6006.08 2071.64C5990.65 2071.64 5976.16 2068.72 5962.62 2062.88 5949.08 2057.03 5937.24 2049.04 5927.1 2038.9 5916.96 2028.76 5908.97 2016.91 5903.12 2003.37 5897.28 1989.82 5894.36 1975.32 5894.36 1959.87 5894.36 1944.42 5897.28 1929.92 5903.12 1916.37 5908.97 1902.82 5916.96 1891.01 5927.09 1880.96 5937.23 1870.91 5949.07 1862.95 5962.62 1857.09 5976.16 1851.22 5990.67 1848.29 6006.12 1848.29 6021.58 1848.29 6036.08 1851.22 6049.64 1857.08 6063.2 1862.94 6075 1870.9 6085.05 1880.94 6095.1 1890.99 6103.05 1902.8 6108.92 1916.39 6114.78 1929.97 6117.71 1944.48 6117.71 1959.93 6117.71 1975.37 6114.78 1989.86 6108.91 2003.4 6103.05 2016.93 6095.09 2028.75 6085.04 2038.86 6074.99 2048.96 6063.17 2056.95 6049.6 2062.83 6036.02 2068.71 6021.52 2071.64 6006.08 2071.64ZM5973.65 2015.82 6021.12 2015.82C6025.88 2015.82 6029.93 2014.14 6033.3 2010.78 6036.67 2007.41 6038.35 2003.35 6038.35 1998.6L6038.35 1975.4C6038.35 1970.45 6037.03 1966.55 6034.39 1963.71 6031.76 1960.87 6028.58 1959.45 6024.87 1959.45 6028.58 1959.45 6031.76 1958.21 6034.39 1955.74 6037.03 1953.26 6038.35 1949.46 6038.35 1944.32L6038.35 1921.4C6038.35 1916.65 6036.67 1912.59 6033.3 1909.22 6029.93 1905.86 6025.88 1904.18 6021.12 1904.18L5973.65 1904.18 5973.65 1921.4 6021.12 1921.4 6021.12 1951.2 5996.48 1951.2 5996.48 1967.7 6021.12 1967.7 6021.12 1998.6 5973.65 1998.6 5973.65 2015.82Z" fill="#F2F2F2"/></g></g></g><path d="M5845.5 1960C5845.5 1871.36 5917.36 1799.5 6006 1799.5 6094.64 1799.5 6166.5 1871.36 6166.5 1960 6166.5 2048.64 6094.64 2120.5 6006 2120.5 5917.36 2120.5 5845.5 2048.64 5845.5 1960Z" stroke="#F2F2F2" stroke-width="6.875" stroke-miterlimit="8" fill="#F2F2F2" fill-rule="evenodd" fill-opacity="0.25098"/><text fill="#404040" font-family="Segoe UI,Segoe UI_MSFontService,sans-serif" font-weight="400" font-size="64" transform="matrix(1 0 0 1 6047.32 2005)">yr</text></g></svg>