<svg width="327" height="328" xmlns="http://www.w3.org/2000/svg" xmlns:xlink="http://www.w3.org/1999/xlink" xml:space="preserve" overflow="hidden"><g transform="translate(3444 -604)"><g><g><g><path d="M-3280.92 878.644C-3296.35 878.644-3310.84 875.722-3324.38 869.877-3337.92 864.033-3349.76 856.039-3359.9 845.897-3370.04 835.755-3378.03 823.912-3383.88 810.367-3389.72 796.823-3392.64 782.324-3392.64 766.871-3392.64 751.419-3389.72 736.918-3383.88 723.366-3378.03 709.816-3370.04 698.014-3359.91 687.962-3349.77 677.908-3337.93 669.95-3324.38 664.087-3310.84 658.222-3296.33 655.289-3280.88 655.289-3265.42 655.289-3250.92 658.22-3237.36 664.081-3223.8 669.942-3212 677.896-3201.95 687.943-3191.9 697.989-3183.95 709.803-3178.08 723.385-3172.22 736.966-3169.29 751.48-3169.29 766.926-3169.29 782.37-3172.22 796.859-3178.09 810.395-3183.95 823.932-3191.91 835.753-3201.96 845.856-3212.01 855.958-3223.83 863.948-3237.4 869.828-3250.98 875.706-3265.48 878.644-3280.92 878.644ZM-3265.88 822.825-3248.65 822.825-3248.65 711.175-3265.88 711.175-3265.88 757.807-3296.12 757.807-3296.12 711.175-3313.35 711.175-3313.35 775.093-3265.88 775.093-3265.88 822.825Z" fill="#F2F2F2"/></g></g></g><path d="M-3440.5 768C-3440.5 679.358-3368.87 607.5-3280.5 607.5-3192.13 607.5-3120.5 679.358-3120.5 768-3120.5 856.642-3192.13 928.5-3280.5 928.5-3368.87 928.5-3440.5 856.642-3440.5 768Z" stroke="#F2F2F2" stroke-width="6.875" stroke-miterlimit="8" fill="#F2F2F2" fill-rule="evenodd" fill-opacity="0.25098"/></g></svg>