<svg width="327" height="328" xmlns="http://www.w3.org/2000/svg" xmlns:xlink="http://www.w3.org/1999/xlink" xml:space="preserve" overflow="hidden"><g transform="translate(3444 -957)"><g><g><g><path d="M-3280.92 1231.64C-3296.35 1231.64-3310.84 1228.72-3324.38 1222.88-3337.92 1217.03-3349.76 1209.04-3359.9 1198.9-3370.04 1188.76-3378.03 1176.91-3383.88 1163.37-3389.72 1149.82-3392.64 1135.32-3392.64 1119.87-3392.64 1104.42-3389.72 1089.92-3383.88 1076.37-3378.03 1062.82-3370.04 1051.01-3359.91 1040.96-3349.77 1030.91-3337.93 1022.95-3324.38 1017.09-3310.84 1011.22-3296.33 1008.29-3280.88 1008.29-3265.42 1008.29-3250.92 1011.22-3237.36 1017.08-3223.8 1022.94-3212 1030.9-3201.95 1040.94-3191.9 1050.99-3183.95 1062.8-3178.08 1076.38-3172.22 1089.97-3169.29 1104.48-3169.29 1119.93-3169.29 1135.37-3172.22 1149.86-3178.09 1163.39-3183.95 1176.93-3191.91 1188.75-3201.96 1198.86-3212.01 1208.96-3223.83 1216.95-3237.4 1222.83-3250.98 1228.71-3265.48 1231.64-3280.92 1231.64ZM-3313.35 1175.82-3265.88 1175.82C-3261.12 1175.82-3257.07 1174.14-3253.7 1170.78-3250.33 1167.41-3248.65 1163.35-3248.65 1158.6L-3248.65 1128.09C-3248.65 1123.34-3250.33 1119.27-3253.7 1115.89-3257.07 1112.5-3261.12 1110.81-3265.88 1110.81L-3296.12 1110.81-3296.12 1081.4-3248.65 1081.4-3248.65 1064.17-3313.35 1064.17-3313.35 1128.09-3265.88 1128.09-3265.88 1158.6-3313.35 1158.6-3313.35 1175.82Z" fill="#F2F2F2"/></g></g></g><path d="M-3440.5 1121C-3440.5 1032.36-3368.87 960.5-3280.5 960.5-3192.13 960.5-3120.5 1032.36-3120.5 1121-3120.5 1209.64-3192.13 1281.5-3280.5 1281.5-3368.87 1281.5-3440.5 1209.64-3440.5 1121Z" stroke="#F2F2F2" stroke-width="6.875" stroke-miterlimit="8" fill="#F2F2F2" fill-rule="evenodd" fill-opacity="0.25098"/></g></svg>